<svg xmlns="http://www.w3.org/2000/svg" viewBox="0 0 128 128" fill="none">
  <rect x="28" y="28" width="72" height="72" rx="20" fill="#0F172A" stroke="#38BDF8" stroke-width="3"/>
  <rect x="42" y="42" width="44" height="44" rx="12" fill="#111827" stroke="#60A5FA" stroke-width="2.5"/>
  <path d="M51 77 58 51h6l7 26h-5.5L64 71h-6l-1.6 6H51Zm8.1-11h3.8L61 58.7 59.1 66Z" fill="#E2E8F0"/>
  <path d="M76 51v26" stroke="#E2E8F0" stroke-width="3" stroke-linecap="round"/>
  <path d="M15 46h18M7 64h20M15 82h18M113 46H95M121 64h-20M113 82H95M46 15v18M64 7v20M82 15v18M46 113V95M64 121v-20M82 113V95" stroke="#38BDF8" stroke-width="3" stroke-linecap="round"/>
  <circle cx="15" cy="46" r="4.5" fill="#0F172A" stroke="#7DD3FC" stroke-width="2.5"/>
  <circle cx="7" cy="64" r="4.5" fill="#0F172A" stroke="#7DD3FC" stroke-width="2.5"/>
  <circle cx="15" cy="82" r="4.5" fill="#0F172A" stroke="#7DD3FC" stroke-width="2.5"/>
  <circle cx="113" cy="46" r="4.5" fill="#0F172A" stroke="#7DD3FC" stroke-width="2.5"/>
  <circle cx="121" cy="64" r="4.5" fill="#0F172A" stroke="#7DD3FC" stroke-width="2.5"/>
  <circle cx="113" cy="82" r="4.5" fill="#0F172A" stroke="#7DD3FC" stroke-width="2.5"/>
  <circle cx="46" cy="15" r="4.5" fill="#0F172A" stroke="#7DD3FC" stroke-width="2.5"/>
  <circle cx="64" cy="7" r="4.5" fill="#0F172A" stroke="#7DD3FC" stroke-width="2.5"/>
  <circle cx="82" cy="15" r="4.5" fill="#0F172A" stroke="#7DD3FC" stroke-width="2.5"/>
  <circle cx="46" cy="113" r="4.5" fill="#0F172A" stroke="#7DD3FC" stroke-width="2.5"/>
  <circle cx="64" cy="121" r="4.5" fill="#0F172A" stroke="#7DD3FC" stroke-width="2.5"/>
  <circle cx="82" cy="113" r="4.5" fill="#0F172A" stroke="#7DD3FC" stroke-width="2.5"/>
</svg>
